# Blender v2.75 (sub 0) OBJ File: ''
# www.blender.org
o Cone
v 0.000000 -0.500000 -1.000000
v 0.062791 -0.500000 -0.998027
v 0.125333 -0.500000 -0.992115
v 0.187381 -0.500000 -0.982287
v 0.248690 -0.500000 -0.968583
v 0.309017 -0.500000 -0.951057
v 0.368125 -0.500000 -0.929776
v 0.425779 -0.500000 -0.904827
v 0.481754 -0.500000 -0.876307
v 0.535827 -0.500000 -0.844328
v 0.587785 -0.500000 -0.809017
v 0.637424 -0.500000 -0.770513
v 0.684547 -0.500000 -0.728969
v 0.728969 -0.500000 -0.684547
v 0.770513 -0.500000 -0.637424
v 0.809017 -0.500000 -0.587785
v 0.844328 -0.500000 -0.535827
v 0.876307 -0.500000 -0.481753
v 0.904827 -0.500000 -0.425779
v 0.929777 -0.500000 -0.368124
v 0.951057 -0.500000 -0.309017
v 0.968583 -0.500000 -0.248690
v 0.982287 -0.500000 -0.187381
v 0.992115 -0.500000 -0.125333
v 0.998027 -0.500000 -0.062790
v 1.000000 -0.500000 0.000000
v 0.998027 -0.500000 0.062791
v 0.992115 -0.500000 0.125334
v 0.982287 -0.500000 0.187382
v 0.968583 -0.500000 0.248690
v 0.951056 -0.500000 0.309018
v 0.929776 -0.500000 0.368125
v 0.904827 -0.500000 0.425780
v 0.876306 -0.500000 0.481754
v 0.844328 -0.500000 0.535827
v 0.809017 -0.500000 0.587786
v 0.770513 -0.500000 0.637425
v 0.728968 -0.500000 0.684548
v 0.000000 0.500000 0.000000
v 0.684547 -0.500000 0.728969
v 0.637423 -0.500000 0.770514
v 0.587785 -0.500000 0.809017
v 0.535826 -0.500000 0.844328
v 0.481753 -0.500000 0.876307
v 0.425779 -0.500000 0.904827
v 0.368124 -0.500000 0.929777
v 0.309016 -0.500000 0.951057
v 0.248689 -0.500000 0.968583
v 0.187380 -0.500000 0.982287
v 0.125332 -0.500000 0.992115
v 0.062790 -0.500000 0.998027
v -0.000001 -0.500000 1.000000
v -0.062792 -0.500000 0.998027
v -0.125334 -0.500000 0.992115
v -0.187382 -0.500000 0.982287
v -0.248691 -0.500000 0.968583
v -0.309018 -0.500000 0.951056
v -0.368126 -0.500000 0.929776
v -0.425780 -0.500000 0.904827
v -0.481755 -0.500000 0.876306
v -0.535828 -0.500000 0.844327
v -0.587786 -0.500000 0.809016
v -0.637425 -0.500000 0.770512
v -0.684548 -0.500000 0.728968
v -0.728970 -0.500000 0.684546
v -0.770514 -0.500000 0.637423
v -0.809018 -0.500000 0.587784
v -0.844329 -0.500000 0.535826
v -0.876307 -0.500000 0.481753
v -0.904828 -0.500000 0.425778
v -0.929777 -0.500000 0.368123
v -0.951057 -0.500000 0.309016
v -0.968583 -0.500000 0.248689
v -0.982288 -0.500000 0.187380
v -0.992115 -0.500000 0.125332
v -0.998027 -0.500000 0.062789
v -1.000000 -0.500000 -0.000001
v -0.998027 -0.500000 -0.062792
v -0.992115 -0.500000 -0.125335
v -0.982287 -0.500000 -0.187383
v -0.968583 -0.500000 -0.248691
v -0.951056 -0.500000 -0.309018
v -0.929776 -0.500000 -0.368126
v -0.904826 -0.500000 -0.425781
v -0.876306 -0.500000 -0.481755
v -0.844327 -0.500000 -0.535828
v -0.809016 -0.500000 -0.587787
v -0.770512 -0.500000 -0.637425
v -0.728967 -0.500000 -0.684548
v -0.684546 -0.500000 -0.728970
v -0.637423 -0.500000 -0.770514
v -0.587784 -0.500000 -0.809018
v -0.535825 -0.500000 -0.844329
v -0.481752 -0.500000 -0.876308
v -0.425778 -0.500000 -0.904828
v -0.368123 -0.500000 -0.929777
v -0.309015 -0.500000 -0.951057
v -0.248688 -0.500000 -0.968584
v -0.187379 -0.500000 -0.982288
v -0.125331 -0.500000 -0.992115
v -0.062788 -0.500000 -0.998027
vn -0.066600 0.706900 -0.704100
vn 0.022200 0.706900 -0.706900
vn -0.110600 0.706900 -0.698600
vn -0.154300 0.706900 -0.690200
vn -0.197300 0.706900 -0.679200
vn -0.239600 0.706900 -0.665500
vn -0.280900 0.706900 -0.649100
vn -0.321100 0.706900 -0.630200
vn -0.360000 0.706900 -0.608800
vn -0.397600 0.706900 -0.585000
vn -0.433500 0.706900 -0.558900
vn -0.467700 0.706900 -0.530500
vn -0.500100 0.706900 -0.500100
vn -0.530500 0.706900 -0.467700
vn -0.558900 0.706900 -0.433500
vn -0.585000 0.706900 -0.397600
vn -0.608800 0.706900 -0.360000
vn -0.630200 0.706900 -0.321100
vn -0.649100 0.706900 -0.280900
vn -0.665500 0.706900 -0.239600
vn -0.679200 0.706900 -0.197300
vn -0.690200 0.706900 -0.154300
vn -0.698600 0.706900 -0.110600
vn -0.704100 0.706900 -0.066600
vn -0.706900 0.706900 -0.022200
vn -0.706900 0.706900 0.022200
vn -0.704100 0.706900 0.066600
vn -0.698600 0.706900 0.110600
vn -0.690200 0.706900 0.154300
vn -0.679200 0.706900 0.197300
vn -0.665500 0.706900 0.239600
vn -0.649100 0.706900 0.280900
vn -0.630200 0.706900 0.321100
vn -0.608800 0.706900 0.360000
vn -0.585000 0.706900 0.397600
vn -0.558900 0.706900 0.433500
vn -0.530500 0.706900 0.467700
vn -0.500100 0.706900 0.500100
vn -0.467700 0.706900 0.530500
vn -0.433500 0.706900 0.558900
vn -0.397600 0.706900 0.585000
vn -0.360000 0.706900 0.608800
vn -0.321100 0.706900 0.630200
vn -0.280900 0.706900 0.649100
vn -0.239600 0.706900 0.665500
vn -0.197300 0.706900 0.679200
vn -0.154300 0.706900 0.690200
vn -0.110600 0.706900 0.698600
vn -0.066600 0.706900 0.704100
vn -0.022200 0.706900 0.706900
vn 0.022200 0.706900 0.706900
vn 0.066600 0.706900 0.704100
vn 0.110600 0.706900 0.698600
vn 0.154300 0.706900 0.690200
vn 0.197300 0.706900 0.679200
vn 0.239600 0.706900 0.665500
vn 0.280900 0.706900 0.649100
vn 0.321100 0.706900 0.630200
vn 0.360000 0.706900 0.608800
vn 0.397600 0.706900 0.585000
vn 0.433500 0.706900 0.558900
vn 0.467700 0.706900 0.530500
vn 0.500100 0.706900 0.500100
vn 0.530500 0.706900 0.467700
vn 0.558900 0.706900 0.433500
vn 0.585000 0.706900 0.397600
vn 0.608800 0.706900 0.360000
vn 0.630200 0.706900 0.321100
vn 0.649100 0.706900 0.280900
vn 0.665500 0.706900 0.239600
vn 0.679200 0.706900 0.197300
vn 0.690200 0.706900 0.154300
vn 0.698600 0.706900 0.110600
vn 0.704100 0.706900 0.066600
vn 0.706900 0.706900 0.022200
vn 0.706900 0.706900 -0.022200
vn 0.704100 0.706900 -0.066600
vn 0.698600 0.706900 -0.110600
vn 0.690200 0.706900 -0.154300
vn 0.679200 0.706900 -0.197300
vn 0.665500 0.706900 -0.239600
vn 0.649100 0.706900 -0.280900
vn 0.630200 0.706900 -0.321100
vn 0.608800 0.706900 -0.360000
vn 0.585000 0.706900 -0.397600
vn 0.558900 0.706900 -0.433500
vn 0.530500 0.706900 -0.467700
vn 0.500100 0.706900 -0.500100
vn 0.467700 0.706900 -0.530500
vn 0.433500 0.706900 -0.558900
vn 0.397600 0.706900 -0.585000
vn 0.360000 0.706900 -0.608800
vn 0.321100 0.706900 -0.630200
vn 0.280900 0.706900 -0.649100
vn 0.239600 0.706900 -0.665500
vn 0.197300 0.706900 -0.679200
vn 0.154300 0.706900 -0.690200
vn 0.110600 0.706900 -0.698600
vn -0.022200 0.706900 -0.706900
vn 0.066600 0.706900 -0.704100
vn 0.000000 -1.000000 0.000000
s off
f 100//1 39//1 101//1
f 1//2 39//2 2//2
f 99//3 39//3 100//3
f 98//4 39//4 99//4
f 97//5 39//5 98//5
f 96//6 39//6 97//6
f 95//7 39//7 96//7
f 94//8 39//8 95//8
f 93//9 39//9 94//9
f 92//10 39//10 93//10
f 91//11 39//11 92//11
f 90//12 39//12 91//12
f 89//13 39//13 90//13
f 88//14 39//14 89//14
f 87//15 39//15 88//15
f 86//16 39//16 87//16
f 85//17 39//17 86//17
f 84//18 39//18 85//18
f 83//19 39//19 84//19
f 82//20 39//20 83//20
f 81//21 39//21 82//21
f 80//22 39//22 81//22
f 79//23 39//23 80//23
f 78//24 39//24 79//24
f 77//25 39//25 78//25
f 76//26 39//26 77//26
f 75//27 39//27 76//27
f 74//28 39//28 75//28
f 73//29 39//29 74//29
f 72//30 39//30 73//30
f 71//31 39//31 72//31
f 70//32 39//32 71//32
f 69//33 39//33 70//33
f 68//34 39//34 69//34
f 67//35 39//35 68//35
f 66//36 39//36 67//36
f 65//37 39//37 66//37
f 64//38 39//38 65//38
f 63//39 39//39 64//39
f 62//40 39//40 63//40
f 61//41 39//41 62//41
f 60//42 39//42 61//42
f 59//43 39//43 60//43
f 58//44 39//44 59//44
f 57//45 39//45 58//45
f 56//46 39//46 57//46
f 55//47 39//47 56//47
f 54//48 39//48 55//48
f 53//49 39//49 54//49
f 52//50 39//50 53//50
f 51//51 39//51 52//51
f 50//52 39//52 51//52
f 49//53 39//53 50//53
f 48//54 39//54 49//54
f 47//55 39//55 48//55
f 46//56 39//56 47//56
f 45//57 39//57 46//57
f 44//58 39//58 45//58
f 43//59 39//59 44//59
f 42//60 39//60 43//60
f 41//61 39//61 42//61
f 40//62 39//62 41//62
f 38//63 39//63 40//63
f 37//64 39//64 38//64
f 36//65 39//65 37//65
f 35//66 39//66 36//66
f 34//67 39//67 35//67
f 33//68 39//68 34//68
f 32//69 39//69 33//69
f 31//70 39//70 32//70
f 30//71 39//71 31//71
f 29//72 39//72 30//72
f 28//73 39//73 29//73
f 27//74 39//74 28//74
f 26//75 39//75 27//75
f 25//76 39//76 26//76
f 24//77 39//77 25//77
f 23//78 39//78 24//78
f 22//79 39//79 23//79
f 21//80 39//80 22//80
f 20//81 39//81 21//81
f 19//82 39//82 20//82
f 18//83 39//83 19//83
f 17//84 39//84 18//84
f 16//85 39//85 17//85
f 15//86 39//86 16//86
f 14//87 39//87 15//87
f 13//88 39//88 14//88
f 12//89 39//89 13//89
f 11//90 39//90 12//90
f 10//91 39//91 11//91
f 9//92 39//92 10//92
f 8//93 39//93 9//93
f 7//94 39//94 8//94
f 6//95 39//95 7//95
f 5//96 39//96 6//96
f 4//97 39//97 5//97
f 3//98 39//98 4//98
f 101//99 39//99 1//99
f 2//100 39//100 3//100
f 29//101 62//101 94//101
f 98//101 101//101 1//101
f 98//101 99//101 100//101
f 96//101 97//101 98//101
f 98//101 95//101 96//101
f 92//101 93//101 94//101
f 90//101 91//101 92//101
f 86//101 89//101 90//101
f 86//101 87//101 88//101
f 82//101 85//101 86//101
f 82//101 83//101 84//101
f 78//101 81//101 82//101
f 78//101 79//101 80//101
f 76//101 77//101 78//101
f 74//101 75//101 76//101
f 72//101 73//101 74//101
f 70//101 71//101 72//101
f 66//101 69//101 70//101
f 66//101 67//101 68//101
f 64//101 65//101 66//101
f 62//101 63//101 64//101
f 60//101 61//101 62//101
f 58//101 59//101 60//101
f 56//101 57//101 58//101
f 54//101 55//101 56//101
f 52//101 53//101 54//101
f 54//101 51//101 52//101
f 46//101 49//101 50//101
f 46//101 47//101 48//101
f 44//101 45//101 46//101
f 46//101 43//101 44//101
f 40//101 41//101 42//101
f 42//101 38//101 40//101
f 33//101 36//101 37//101
f 33//101 34//101 35//101
f 31//101 32//101 33//101
f 29//101 30//101 31//101
f 27//101 28//101 29//101
f 29//101 26//101 27//101
f 23//101 24//101 25//101
f 21//101 22//101 23//101
f 19//101 20//101 21//101
f 17//101 18//101 19//101
f 13//101 16//101 17//101
f 13//101 14//101 15//101
f 11//101 12//101 13//101
f 9//101 10//101 11//101
f 7//101 8//101 9//101
f 5//101 6//101 7//101
f 1//101 4//101 5//101
f 1//101 2//101 3//101
f 98//101 100//101 101//101
f 94//101 95//101 98//101
f 86//101 92//101 94//101
f 86//101 88//101 89//101
f 82//101 84//101 85//101
f 78//101 80//101 81//101
f 74//101 76//101 78//101
f 78//101 72//101 74//101
f 66//101 68//101 69//101
f 70//101 64//101 66//101
f 54//101 60//101 62//101
f 54//101 56//101 58//101
f 50//101 51//101 54//101
f 46//101 48//101 49//101
f 42//101 43//101 46//101
f 37//101 38//101 42//101
f 33//101 35//101 36//101
f 37//101 31//101 33//101
f 25//101 26//101 29//101
f 21//101 23//101 25//101
f 13//101 19//101 21//101
f 13//101 15//101 16//101
f 5//101 11//101 13//101
f 5//101 7//101 9//101
f 1//101 3//101 4//101
f 5//101 98//101 1//101
f 86//101 90//101 92//101
f 94//101 82//101 86//101
f 70//101 72//101 78//101
f 62//101 64//101 70//101
f 54//101 58//101 60//101
f 46//101 50//101 54//101
f 37//101 42//101 46//101
f 29//101 31//101 37//101
f 13//101 25//101 29//101
f 13//101 17//101 19//101
f 5//101 9//101 11//101
f 94//101 98//101 5//101
f 78//101 82//101 94//101
f 62//101 70//101 78//101
f 46//101 54//101 62//101
f 29//101 37//101 46//101
f 13//101 21//101 25//101
f 29//101 5//101 13//101
f 62//101 78//101 94//101
f 29//101 46//101 62//101
f 94//101 5//101 29//101
