# Blender v2.75 (sub 0) OBJ File: ''
# www.blender.org
o Cylinder
v 0.000000 -0.500000 -1.000000
v 0.000000 0.500000 -1.000000
v 0.062791 -0.500000 -0.998027
v 0.062791 0.500000 -0.998027
v 0.125333 -0.500000 -0.992115
v 0.125333 0.500000 -0.992115
v 0.187381 -0.500000 -0.982287
v 0.187381 0.500000 -0.982287
v 0.248690 -0.500000 -0.968583
v 0.248690 0.500000 -0.968583
v 0.309017 -0.500000 -0.951057
v 0.309017 0.500000 -0.951057
v 0.368125 -0.500000 -0.929776
v 0.368125 0.500000 -0.929776
v 0.425779 -0.500000 -0.904827
v 0.425779 0.500000 -0.904827
v 0.481754 -0.500000 -0.876307
v 0.481754 0.500000 -0.876307
v 0.535827 -0.500000 -0.844328
v 0.535827 0.500000 -0.844328
v 0.587785 -0.500000 -0.809017
v 0.587785 0.500000 -0.809017
v 0.637424 -0.500000 -0.770513
v 0.637424 0.500000 -0.770513
v 0.684547 -0.500000 -0.728969
v 0.684547 0.500000 -0.728969
v 0.728969 -0.500000 -0.684547
v 0.728969 0.500000 -0.684547
v 0.770513 -0.500000 -0.637424
v 0.770513 0.500000 -0.637424
v 0.809017 -0.500000 -0.587785
v 0.809017 0.500000 -0.587785
v 0.844328 -0.500000 -0.535827
v 0.844328 0.500000 -0.535827
v 0.876307 -0.500000 -0.481753
v 0.876307 0.500000 -0.481753
v 0.904827 -0.500000 -0.425779
v 0.904827 0.500000 -0.425779
v 0.929777 -0.500000 -0.368124
v 0.929777 0.500000 -0.368124
v 0.951057 -0.500000 -0.309017
v 0.951057 0.500000 -0.309017
v 0.968583 -0.500000 -0.248690
v 0.968583 0.500000 -0.248690
v 0.982287 -0.500000 -0.187381
v 0.982287 0.500000 -0.187381
v 0.992115 -0.500000 -0.125333
v 0.992115 0.500000 -0.125333
v 0.998027 -0.500000 -0.062790
v 0.998027 0.500000 -0.062790
v 1.000000 -0.500000 0.000000
v 1.000000 0.500000 0.000000
v 0.998027 -0.500000 0.062791
v 0.998027 0.500000 0.062791
v 0.992115 -0.500000 0.125334
v 0.992115 0.500000 0.125334
v 0.982287 -0.500000 0.187382
v 0.982287 0.500000 0.187382
v 0.968583 -0.500000 0.248690
v 0.968583 0.500000 0.248690
v 0.951056 -0.500000 0.309018
v 0.951056 0.500000 0.309018
v 0.929776 -0.500000 0.368125
v 0.929776 0.500000 0.368125
v 0.904827 -0.500000 0.425780
v 0.904827 0.500000 0.425780
v 0.876306 -0.500000 0.481754
v 0.876306 0.500000 0.481754
v 0.844328 -0.500000 0.535827
v 0.844328 0.500000 0.535827
v 0.809017 -0.500000 0.587786
v 0.809017 0.500000 0.587786
v 0.770513 -0.500000 0.637425
v 0.770513 0.500000 0.637425
v 0.728968 -0.500000 0.684548
v 0.728968 0.500000 0.684548
v 0.684547 -0.500000 0.728969
v 0.684547 0.500000 0.728969
v 0.637423 -0.500000 0.770514
v 0.637423 0.500000 0.770514
v 0.587785 -0.500000 0.809017
v 0.587785 0.500000 0.809017
v 0.535826 -0.500000 0.844328
v 0.535826 0.500000 0.844328
v 0.481753 -0.500000 0.876307
v 0.481753 0.500000 0.876307
v 0.425779 -0.500000 0.904827
v 0.425779 0.500000 0.904827
v 0.368124 -0.500000 0.929777
v 0.368124 0.500000 0.929777
v 0.309016 -0.500000 0.951057
v 0.309016 0.500000 0.951057
v 0.248689 -0.500000 0.968583
v 0.248689 0.500000 0.968583
v 0.187380 -0.500000 0.982287
v 0.187380 0.500000 0.982287
v 0.125332 -0.500000 0.992115
v 0.125332 0.500000 0.992115
v 0.062790 -0.500000 0.998027
v 0.062790 0.500000 0.998027
v -0.000001 -0.500000 1.000000
v -0.000001 0.500000 1.000000
v -0.062792 -0.500000 0.998027
v -0.062792 0.500000 0.998027
v -0.125334 -0.500000 0.992115
v -0.125334 0.500000 0.992115
v -0.187382 -0.500000 0.982287
v -0.187382 0.500000 0.982287
v -0.248691 -0.500000 0.968583
v -0.248691 0.500000 0.968583
v -0.309018 -0.500000 0.951056
v -0.309018 0.500000 0.951056
v -0.368126 -0.500000 0.929776
v -0.368126 0.500000 0.929776
v -0.425780 -0.500000 0.904827
v -0.425780 0.500000 0.904827
v -0.481755 -0.500000 0.876306
v -0.481755 0.500000 0.876306
v -0.535828 -0.500000 0.844327
v -0.535828 0.500000 0.844327
v -0.587786 -0.500000 0.809016
v -0.587786 0.500000 0.809016
v -0.637425 -0.500000 0.770512
v -0.637425 0.500000 0.770512
v -0.684548 -0.500000 0.728968
v -0.684548 0.500000 0.728968
v -0.728970 -0.500000 0.684546
v -0.728970 0.500000 0.684546
v -0.770514 -0.500000 0.637423
v -0.770514 0.500000 0.637423
v -0.809018 -0.500000 0.587784
v -0.809018 0.500000 0.587784
v -0.844329 -0.500000 0.535826
v -0.844329 0.500000 0.535826
v -0.876307 -0.500000 0.481753
v -0.876307 0.500000 0.481753
v -0.904828 -0.500000 0.425778
v -0.904828 0.500000 0.425778
v -0.929777 -0.500000 0.368123
v -0.929777 0.500000 0.368123
v -0.951057 -0.500000 0.309016
v -0.951057 0.500000 0.309016
v -0.968583 -0.500000 0.248689
v -0.968583 0.500000 0.248689
v -0.982288 -0.500000 0.187380
v -0.982288 0.500000 0.187380
v -0.992115 -0.500000 0.125332
v -0.992115 0.500000 0.125332
v -0.998027 -0.500000 0.062789
v -0.998027 0.500000 0.062789
v -1.000000 -0.500000 -0.000001
v -1.000000 0.500000 -0.000001
v -0.998027 -0.500000 -0.062792
v -0.998027 0.500000 -0.062792
v -0.992115 -0.500000 -0.125335
v -0.992115 0.500000 -0.125335
v -0.982287 -0.500000 -0.187383
v -0.982287 0.500000 -0.187383
v -0.968583 -0.500000 -0.248691
v -0.968583 0.500000 -0.248691
v -0.951056 -0.500000 -0.309018
v -0.951056 0.500000 -0.309018
v -0.929776 -0.500000 -0.368126
v -0.929776 0.500000 -0.368126
v -0.904826 -0.500000 -0.425781
v -0.904826 0.500000 -0.425781
v -0.876306 -0.500000 -0.481755
v -0.876306 0.500000 -0.481755
v -0.844327 -0.500000 -0.535828
v -0.844327 0.500000 -0.535828
v -0.809016 -0.500000 -0.587787
v -0.809016 0.500000 -0.587787
v -0.770512 -0.500000 -0.637425
v -0.770512 0.500000 -0.637425
v -0.728967 -0.500000 -0.684548
v -0.728967 0.500000 -0.684548
v -0.684546 -0.500000 -0.728970
v -0.684546 0.500000 -0.728970
v -0.637423 -0.500000 -0.770514
v -0.637423 0.500000 -0.770514
v -0.587784 -0.500000 -0.809018
v -0.587784 0.500000 -0.809018
v -0.535825 -0.500000 -0.844329
v -0.535825 0.500000 -0.844329
v -0.481752 -0.500000 -0.876308
v -0.481752 0.500000 -0.876308
v -0.425778 -0.500000 -0.904828
v -0.425778 0.500000 -0.904828
v -0.368123 -0.500000 -0.929777
v -0.368123 0.500000 -0.929777
v -0.309015 -0.500000 -0.951057
v -0.309015 0.500000 -0.951057
v -0.248688 -0.500000 -0.968584
v -0.248688 0.500000 -0.968584
v -0.187379 -0.500000 -0.982288
v -0.187379 0.500000 -0.982288
v -0.125331 -0.500000 -0.992115
v -0.125331 0.500000 -0.992115
v -0.062788 -0.500000 -0.998027
v -0.062788 0.500000 -0.998027
vn 0.031400 0.000000 -0.999500
vn 0.094100 0.000000 -0.995600
vn 0.156400 0.000000 -0.987700
vn 0.218100 0.000000 -0.975900
vn 0.279000 0.000000 -0.960300
vn 0.338700 0.000000 -0.940900
vn 0.397100 0.000000 -0.917800
vn 0.454000 0.000000 -0.891000
vn 0.509000 0.000000 -0.860700
vn 0.562100 0.000000 -0.827100
vn 0.612900 0.000000 -0.790200
vn 0.661300 0.000000 -0.750100
vn 0.707100 0.000000 -0.707100
vn 0.750100 0.000000 -0.661300
vn 0.790200 0.000000 -0.612900
vn 0.827100 0.000000 -0.562100
vn 0.860700 0.000000 -0.509000
vn 0.891000 0.000000 -0.454000
vn 0.917800 0.000000 -0.397100
vn 0.940900 0.000000 -0.338700
vn 0.960300 0.000000 -0.279000
vn 0.975900 0.000000 -0.218100
vn 0.987700 0.000000 -0.156400
vn 0.995600 0.000000 -0.094100
vn 0.999500 0.000000 -0.031400
vn 0.999500 0.000000 0.031400
vn 0.995600 0.000000 0.094100
vn 0.987700 0.000000 0.156400
vn 0.975900 0.000000 0.218100
vn 0.960300 0.000000 0.279000
vn 0.940900 0.000000 0.338700
vn 0.917800 0.000000 0.397100
vn 0.891000 0.000000 0.454000
vn 0.860700 0.000000 0.509000
vn 0.827100 0.000000 0.562100
vn 0.790200 0.000000 0.612900
vn 0.750100 0.000000 0.661300
vn 0.707100 0.000000 0.707100
vn 0.661300 0.000000 0.750100
vn 0.612900 0.000000 0.790200
vn 0.562100 0.000000 0.827100
vn 0.509000 0.000000 0.860700
vn 0.454000 0.000000 0.891000
vn 0.397100 0.000000 0.917800
vn 0.338700 0.000000 0.940900
vn 0.279000 0.000000 0.960300
vn 0.218100 0.000000 0.975900
vn 0.156400 0.000000 0.987700
vn 0.094100 0.000000 0.995600
vn 0.031400 0.000000 0.999500
vn -0.031400 0.000000 0.999500
vn -0.094100 0.000000 0.995600
vn -0.156400 0.000000 0.987700
vn -0.218100 0.000000 0.975900
vn -0.279000 0.000000 0.960300
vn -0.338700 0.000000 0.940900
vn -0.397100 0.000000 0.917800
vn -0.454000 0.000000 0.891000
vn -0.509000 0.000000 0.860700
vn -0.562100 0.000000 0.827100
vn -0.612900 0.000000 0.790200
vn -0.661300 0.000000 0.750100
vn -0.707100 0.000000 0.707100
vn -0.750100 0.000000 0.661300
vn -0.790200 0.000000 0.612900
vn -0.827100 0.000000 0.562100
vn -0.860700 0.000000 0.509000
vn -0.891000 0.000000 0.454000
vn -0.917800 0.000000 0.397100
vn -0.940900 0.000000 0.338700
vn -0.960300 0.000000 0.279000
vn -0.975900 0.000000 0.218100
vn -0.987700 0.000000 0.156400
vn -0.995600 0.000000 0.094100
vn -0.999500 0.000000 0.031400
vn -0.999500 0.000000 -0.031400
vn -0.995600 0.000000 -0.094100
vn -0.987700 0.000000 -0.156400
vn -0.975900 0.000000 -0.218100
vn -0.960300 0.000000 -0.279000
vn -0.940900 0.000000 -0.338700
vn -0.917800 0.000000 -0.397100
vn -0.891000 0.000000 -0.454000
vn -0.860700 0.000000 -0.509000
vn -0.827100 0.000000 -0.562100
vn -0.790200 0.000000 -0.612900
vn -0.750100 0.000000 -0.661300
vn -0.707100 0.000000 -0.707100
vn -0.661300 0.000000 -0.750100
vn -0.612900 0.000000 -0.790200
vn -0.562100 0.000000 -0.827100
vn -0.509000 0.000000 -0.860700
vn -0.454000 0.000000 -0.891000
vn -0.397100 0.000000 -0.917800
vn -0.338700 0.000000 -0.940900
vn -0.279000 0.000000 -0.960300
vn -0.218100 0.000000 -0.975900
vn -0.156400 0.000000 -0.987700
vn 0.000000 1.000000 -0.000000
vn -0.031400 0.000000 -0.999500
vn -0.094100 0.000000 -0.995600
vn 0.000000 -1.000000 0.000000
usemtl None
s off
f 2//1 4//1 3//1
f 4//2 6//2 5//2
f 6//3 8//3 7//3
f 8//4 10//4 9//4
f 10//5 12//5 11//5
f 12//6 14//6 13//6
f 14//7 16//7 15//7
f 16//8 18//8 17//8
f 18//9 20//9 19//9
f 20//10 22//10 21//10
f 22//11 24//11 23//11
f 24//12 26//12 25//12
f 26//13 28//13 27//13
f 28//14 30//14 29//14
f 30//15 32//15 31//15
f 32//16 34//16 33//16
f 34//17 36//17 35//17
f 36//18 38//18 37//18
f 38//19 40//19 39//19
f 40//20 42//20 41//20
f 42//21 44//21 43//21
f 44//22 46//22 45//22
f 46//23 48//23 47//23
f 48//24 50//24 49//24
f 50//25 52//25 51//25
f 52//26 54//26 53//26
f 54//27 56//27 55//27
f 56//28 58//28 57//28
f 58//29 60//29 59//29
f 60//30 62//30 61//30
f 62//31 64//31 63//31
f 64//32 66//32 65//32
f 66//33 68//33 67//33
f 68//34 70//34 69//34
f 70//35 72//35 71//35
f 72//36 74//36 73//36
f 74//37 76//37 75//37
f 76//38 78//38 77//38
f 78//39 80//39 79//39
f 80//40 82//40 81//40
f 82//41 84//41 83//41
f 84//42 86//42 85//42
f 86//43 88//43 87//43
f 88//44 90//44 89//44
f 90//45 92//45 91//45
f 92//46 94//46 93//46
f 94//47 96//47 95//47
f 96//48 98//48 97//48
f 98//49 100//49 99//49
f 100//50 102//50 101//50
f 102//51 104//51 103//51
f 104//52 106//52 105//52
f 106//53 108//53 107//53
f 108//54 110//54 109//54
f 110//55 112//55 111//55
f 112//56 114//56 113//56
f 114//57 116//57 115//57
f 116//58 118//58 117//58
f 118//59 120//59 119//59
f 120//60 122//60 121//60
f 122//61 124//61 123//61
f 124//62 126//62 125//62
f 126//63 128//63 127//63
f 128//64 130//64 129//64
f 130//65 132//65 131//65
f 132//66 134//66 133//66
f 134//67 136//67 135//67
f 136//68 138//68 137//68
f 138//69 140//69 139//69
f 140//70 142//70 141//70
f 142//71 144//71 143//71
f 144//72 146//72 145//72
f 146//73 148//73 147//73
f 148//74 150//74 149//74
f 150//75 152//75 151//75
f 152//76 154//76 153//76
f 154//77 156//77 155//77
f 156//78 158//78 157//78
f 158//79 160//79 159//79
f 160//80 162//80 161//80
f 162//81 164//81 163//81
f 164//82 166//82 165//82
f 166//83 168//83 167//83
f 168//84 170//84 169//84
f 170//85 172//85 171//85
f 172//86 174//86 173//86
f 174//87 176//87 175//87
f 176//88 178//88 177//88
f 178//89 180//89 179//89
f 180//90 182//90 181//90
f 182//91 184//91 183//91
f 184//92 186//92 185//92
f 186//93 188//93 187//93
f 188//94 190//94 189//94
f 190//95 192//95 191//95
f 192//96 194//96 193//96
f 194//97 196//97 195//97
f 196//98 198//98 197//98
f 148//99 84//99 20//99
f 200//100 2//100 1//100
f 198//101 200//101 199//101
f 57//102 121//102 185//102
f 1//1 2//1 3//1
f 3//2 4//2 5//2
f 5//3 6//3 7//3
f 7//4 8//4 9//4
f 9//5 10//5 11//5
f 11//6 12//6 13//6
f 13//7 14//7 15//7
f 15//8 16//8 17//8
f 17//9 18//9 19//9
f 19//10 20//10 21//10
f 21//11 22//11 23//11
f 23//12 24//12 25//12
f 25//13 26//13 27//13
f 27//14 28//14 29//14
f 29//15 30//15 31//15
f 31//16 32//16 33//16
f 33//17 34//17 35//17
f 35//18 36//18 37//18
f 37//19 38//19 39//19
f 39//20 40//20 41//20
f 41//21 42//21 43//21
f 43//22 44//22 45//22
f 45//23 46//23 47//23
f 47//24 48//24 49//24
f 49//25 50//25 51//25
f 51//26 52//26 53//26
f 53//27 54//27 55//27
f 55//28 56//28 57//28
f 57//29 58//29 59//29
f 59//30 60//30 61//30
f 61//31 62//31 63//31
f 63//32 64//32 65//32
f 65//33 66//33 67//33
f 67//34 68//34 69//34
f 69//35 70//35 71//35
f 71//36 72//36 73//36
f 73//37 74//37 75//37
f 75//38 76//38 77//38
f 77//39 78//39 79//39
f 79//40 80//40 81//40
f 81//41 82//41 83//41
f 83//42 84//42 85//42
f 85//43 86//43 87//43
f 87//44 88//44 89//44
f 89//45 90//45 91//45
f 91//46 92//46 93//46
f 93//47 94//47 95//47
f 95//48 96//48 97//48
f 97//49 98//49 99//49
f 99//50 100//50 101//50
f 101//51 102//51 103//51
f 103//52 104//52 105//52
f 105//53 106//53 107//53
f 107//54 108//54 109//54
f 109//55 110//55 111//55
f 111//56 112//56 113//56
f 113//57 114//57 115//57
f 115//58 116//58 117//58
f 117//59 118//59 119//59
f 119//60 120//60 121//60
f 121//61 122//61 123//61
f 123//62 124//62 125//62
f 125//63 126//63 127//63
f 127//64 128//64 129//64
f 129//65 130//65 131//65
f 131//66 132//66 133//66
f 133//67 134//67 135//67
f 135//68 136//68 137//68
f 137//69 138//69 139//69
f 139//70 140//70 141//70
f 141//71 142//71 143//71
f 143//72 144//72 145//72
f 145//73 146//73 147//73
f 147//74 148//74 149//74
f 149//75 150//75 151//75
f 151//76 152//76 153//76
f 153//77 154//77 155//77
f 155//78 156//78 157//78
f 157//79 158//79 159//79
f 159//80 160//80 161//80
f 161//81 162//81 163//81
f 163//82 164//82 165//82
f 165//83 166//83 167//83
f 167//84 168//84 169//84
f 169//85 170//85 171//85
f 171//86 172//86 173//86
f 173//87 174//87 175//87
f 175//88 176//88 177//88
f 177//89 178//89 179//89
f 179//90 180//90 181//90
f 181//91 182//91 183//91
f 183//92 184//92 185//92
f 185//93 186//93 187//93
f 187//94 188//94 189//94
f 189//95 190//95 191//95
f 191//96 192//96 193//96
f 193//97 194//97 195//97
f 195//98 196//98 197//98
f 8//99 6//99 4//99
f 12//99 10//99 8//99
f 16//99 14//99 12//99
f 20//99 18//99 16//99
f 28//99 22//99 20//99
f 28//99 26//99 24//99
f 32//99 30//99 28//99
f 36//99 34//99 32//99
f 40//99 38//99 36//99
f 44//99 42//99 40//99
f 48//99 46//99 44//99
f 44//99 50//99 48//99
f 56//99 54//99 52//99
f 52//99 58//99 56//99
f 64//99 62//99 60//99
f 60//99 66//99 64//99
f 72//99 70//99 68//99
f 76//99 74//99 72//99
f 80//99 78//99 76//99
f 84//99 82//99 80//99
f 88//99 86//99 84//99
f 84//99 90//99 88//99
f 96//99 94//99 92//99
f 100//99 98//99 96//99
f 104//99 102//99 100//99
f 100//99 106//99 104//99
f 116//99 110//99 108//99
f 116//99 114//99 112//99
f 124//99 118//99 116//99
f 124//99 122//99 120//99
f 128//99 126//99 124//99
f 132//99 130//99 128//99
f 136//99 134//99 132//99
f 140//99 138//99 136//99
f 144//99 142//99 140//99
f 148//99 146//99 144//99
f 156//99 150//99 148//99
f 156//99 154//99 152//99
f 160//99 158//99 156//99
f 164//99 162//99 160//99
f 168//99 166//99 164//99
f 172//99 170//99 168//99
f 176//99 174//99 172//99
f 180//99 178//99 176//99
f 188//99 182//99 180//99
f 188//99 186//99 184//99
f 192//99 190//99 188//99
f 188//99 194//99 192//99
f 200//99 198//99 196//99
f 4//99 2//99 200//99
f 12//99 8//99 4//99
f 4//99 16//99 12//99
f 28//99 24//99 22//99
f 20//99 32//99 28//99
f 52//99 40//99 36//99
f 52//99 50//99 44//99
f 60//99 58//99 52//99
f 68//99 66//99 60//99
f 84//99 72//99 68//99
f 84//99 80//99 76//99
f 92//99 90//99 84//99
f 84//99 96//99 92//99
f 108//99 106//99 100//99
f 116//99 112//99 110//99
f 124//99 120//99 118//99
f 132//99 128//99 124//99
f 140//99 136//99 132//99
f 132//99 144//99 140//99
f 156//99 152//99 150//99
f 148//99 160//99 156//99
f 180//99 168//99 164//99
f 180//99 176//99 172//99
f 188//99 184//99 182//99
f 196//99 194//99 188//99
f 20//99 200//99 196//99
f 20//99 16//99 4//99
f 36//99 32//99 20//99
f 52//99 44//99 40//99
f 68//99 60//99 52//99
f 84//99 76//99 72//99
f 100//99 96//99 84//99
f 116//99 108//99 100//99
f 132//99 124//99 116//99
f 148//99 144//99 132//99
f 164//99 160//99 148//99
f 180//99 172//99 168//99
f 20//99 188//99 180//99
f 20//99 4//99 200//99
f 52//99 36//99 20//99
f 84//99 68//99 52//99
f 116//99 100//99 84//99
f 148//99 132//99 116//99
f 20//99 164//99 148//99
f 20//99 196//99 188//99
f 84//99 52//99 20//99
f 148//99 116//99 84//99
f 20//99 180//99 164//99
f 199//100 200//100 1//100
f 197//101 198//101 199//101
f 193//102 199//102 1//102
f 193//102 195//102 197//102
f 189//102 191//102 193//102
f 193//102 187//102 189//102
f 181//102 183//102 185//102
f 177//102 179//102 181//102
f 169//102 175//102 177//102
f 169//102 171//102 173//102
f 161//102 167//102 169//102
f 161//102 163//102 165//102
f 153//102 159//102 161//102
f 153//102 155//102 157//102
f 149//102 151//102 153//102
f 145//102 147//102 149//102
f 141//102 143//102 145//102
f 137//102 139//102 141//102
f 129//102 135//102 137//102
f 129//102 131//102 133//102
f 125//102 127//102 129//102
f 121//102 123//102 125//102
f 117//102 119//102 121//102
f 113//102 115//102 117//102
f 109//102 111//102 113//102
f 105//102 107//102 109//102
f 101//102 103//102 105//102
f 105//102 99//102 101//102
f 89//102 95//102 97//102
f 89//102 91//102 93//102
f 85//102 87//102 89//102
f 89//102 83//102 85//102
f 77//102 79//102 81//102
f 81//102 75//102 77//102
f 65//102 71//102 73//102
f 65//102 67//102 69//102
f 61//102 63//102 65//102
f 57//102 59//102 61//102
f 53//102 55//102 57//102
f 57//102 51//102 53//102
f 45//102 47//102 49//102
f 41//102 43//102 45//102
f 37//102 39//102 41//102
f 33//102 35//102 37//102
f 25//102 31//102 33//102
f 25//102 27//102 29//102
f 21//102 23//102 25//102
f 17//102 19//102 21//102
f 13//102 15//102 17//102
f 9//102 11//102 13//102
f 1//102 7//102 9//102
f 1//102 3//102 5//102
f 193//102 197//102 199//102
f 185//102 187//102 193//102
f 169//102 181//102 185//102
f 169//102 173//102 175//102
f 161//102 165//102 167//102
f 153//102 157//102 159//102
f 145//102 149//102 153//102
f 153//102 141//102 145//102
f 129//102 133//102 135//102
f 137//102 125//102 129//102
f 105//102 117//102 121//102
f 105//102 109//102 113//102
f 97//102 99//102 105//102
f 89//102 93//102 95//102
f 81//102 83//102 89//102
f 73//102 75//102 81//102
f 65//102 69//102 71//102
f 73//102 61//102 65//102
f 49//102 51//102 57//102
f 41//102 45//102 49//102
f 25//102 37//102 41//102
f 25//102 29//102 31//102
f 9//102 21//102 25//102
f 9//102 13//102 17//102
f 1//102 5//102 7//102
f 9//102 193//102 1//102
f 169//102 177//102 181//102
f 185//102 161//102 169//102
f 137//102 141//102 153//102
f 121//102 125//102 137//102
f 105//102 113//102 117//102
f 89//102 97//102 105//102
f 73//102 81//102 89//102
f 57//102 61//102 73//102
f 25//102 49//102 57//102
f 25//102 33//102 37//102
f 9//102 17//102 21//102
f 185//102 193//102 9//102
f 153//102 161//102 185//102
f 121//102 137//102 153//102
f 89//102 105//102 121//102
f 57//102 73//102 89//102
f 25//102 41//102 49//102
f 57//102 9//102 25//102
f 121//102 153//102 185//102
f 57//102 89//102 121//102
f 185//102 9//102 57//102
